<?xml version="1.0" encoding="UTF-8" standalone="no"?>
<!-- Created with Inkscape (http://www.inkscape.org/) -->

<svg
   width="64mm"
   height="64mm"
   viewBox="0 0 64 64"
   version="1.1"
   id="svg1"
   xml:space="preserve"
   inkscape:version="1.3.2 (091e20e, 2023-11-25)"
   sodipodi:docname="logo.svg"
   inkscape:export-filename="logo.png"
   inkscape:export-xdpi="96"
   inkscape:export-ydpi="96"
   xmlns:inkscape="http://www.inkscape.org/namespaces/inkscape"
   xmlns:sodipodi="http://sodipodi.sourceforge.net/DTD/sodipodi-0.dtd"
   xmlns="http://www.w3.org/2000/svg"
   xmlns:svg="http://www.w3.org/2000/svg"><sodipodi:namedview
     id="namedview1"
     pagecolor="#505050"
     bordercolor="#ffffff"
     borderopacity="1"
     inkscape:showpageshadow="0"
     inkscape:pageopacity="0"
     inkscape:pagecheckerboard="1"
     inkscape:deskcolor="#505050"
     inkscape:document-units="mm"
     inkscape:zoom="4.8617187"
     inkscape:cx="111.99743"
     inkscape:cy="131.64069"
     inkscape:window-width="2474"
     inkscape:window-height="1376"
     inkscape:window-x="86"
     inkscape:window-y="27"
     inkscape:window-maximized="1"
     inkscape:current-layer="layer1" /><defs
     id="defs1"><rect
       x="61.403727"
       y="68.084174"
       width="107.71632"
       height="103.81357"
       id="rect21" /></defs><g
     inkscape:groupmode="layer"
     id="layer7"
     inkscape:label="Reference 1"
     style="display:inline"><circle
       style="fill:#7198d9;fill-opacity:1;fill-rule:nonzero;stroke-width:0.264583"
       id="path7"
       cx="32"
       cy="32"
       r="30.163401" /></g><g
     inkscape:groupmode="layer"
     id="layer4"
     inkscape:label="mountains-3"
     style="display:inline"
     sodipodi:insensitive="true"><path
       style="fill:#ffffff;fill-opacity:1;fill-rule:nonzero;stroke-width:0.264583"
       d="m 14.949665,23.759353 0.368566,-0.350838 1.521719,-0.256825 0.426022,-0.186027 0.584191,-0.0068 0.790401,-0.356709 1.145365,-0.07913 1.208261,-0.461469 0.825908,0.294457 1.143476,0.435061 c 0,0 0.629169,0.142002 0.980585,0.08284 0.351416,-0.05916 1.549771,-0.262794 1.951719,-0.21999 0.401948,0.0428 2.578614,0.410634 2.578614,0.410634 0,0 1.04602,0.21436 1.591665,0.07454 0.545645,-0.139821 1.700855,-0.608028 1.700855,-0.608028 l 1.246283,-0.136178 1.320051,0.520935 2.744293,-1.110876 c 0,0 0.752224,-0.309276 1.094343,-0.234377 0.342122,0.0749 0.281485,0.0942 0.442188,0.07752 0.1607,-0.01667 0.282982,-0.01576 0.412874,0.03394 0.129892,0.04969 1.59158,1.135704 1.59158,1.135704 l 3.057691,1.894581 c 0,0 2.05952,1.024757 2.498932,1.070087 0.439414,0.04533 2.041337,-0.0619 2.390608,-0.144463 0.349274,-0.08256 2.431918,0.662616 2.431918,0.662616 l 1.272455,0.591214 0.879258,-0.147543 7.99334,1.60786 0.431263,4.583176 -11.370857,0.935482 c 0,0 -35.35285,-3.719592 -35.35285,-4.076988 0,-0.357397 0.09928,-6.034449 0.09928,-6.034449 z"
       id="path6" /></g><g
     inkscape:groupmode="layer"
     id="layer3"
     inkscape:label="mountains-2"
     style="display:inline"><path
       style="fill:#28313a;fill-opacity:1;fill-rule:nonzero;stroke-width:0.264583"
       d="m 9.0350807,25.284291 c 3.2722233,-1.248952 3.5423833,-2.008862 5.7873983,-1.795288 2.245015,0.213574 4.85785,1.541227 8.238537,1.677457 3.380686,0.13623 3.848299,-0.226523 7.661747,0.504732 3.813447,0.731255 5.166997,1.404615 8.807233,1.392812 3.640235,-0.0118 5.094308,0.05975 8.115083,-0.279151 3.020771,-0.338905 2.848491,-0.8215 4.34599,-0.07504 1.497497,0.746466 5.579824,3.599399 5.579824,3.599399 l 4.221745,1.807046 -0.266814,5.736244 -1.402802,4.76074 c 0,0 -29.958818,1.222875 -30.361001,1.382654 C 29.359838,44.155677 9.0350807,25.284291 9.0350807,25.284291 Z"
       id="path5" /></g><g
     inkscape:groupmode="layer"
     id="layer11"
     inkscape:label="Mountain Accent Snow - Rear"
     style="fill:#ffffff;fill-opacity:1"><path
       style="opacity:1;fill:#f9f9f9;fill-opacity:1;fill-rule:nonzero;stroke-width:0.264583"
       d="m 43.986428,35.222968 c 0.224158,-0.483283 1.459315,-4.09916 1.459315,-4.09916 l 1.416243,4.426611 z"
       id="path14" /><path
       style="opacity:1;fill:#f9f9f9;fill-opacity:1;fill-rule:nonzero;stroke-width:0.264583"
       d="m 49.421242,35.537073 c 0,0 -1.528132,-1.333457 -1.94193,-2.971937 -0.413798,-1.638477 -0.522362,-1.948212 -0.522362,-1.948212 0,0 0.979221,2.418646 2.710273,3.909214 1.731055,1.490567 1.731055,1.490567 1.731055,1.490567 z"
       id="path15" /></g><g
     inkscape:groupmode="layer"
     id="layer2"
     inkscape:label="mountains-1"
     style="display:inline"><path
       style="fill:#323b44;fill-opacity:1;fill-rule:nonzero;stroke-width:0.266049"
       d="m 4.2355366,21.570554 c 8.0050274,2.110142 9.4575724,2.928932 9.4575724,2.928932 0,0 1.7608,1.024402 4.81608,3.376469 3.055281,2.352066 9.06278,7.149962 9.06278,7.149962 0,0 1.245647,1.29018 3.47925,1.619356 2.233604,0.329176 4.12671,1.180475 5.8792,-0.0016 1.752494,-1.182005 4.607173,-3.23192 6.805366,-2.868051 2.198195,0.363871 5.917269,1.456182 8.423603,1.576292 2.506335,0.12011 2.629315,-0.460944 5.090486,0.222065 2.461172,0.683008 4.725206,0.698005 4.725206,0.698005 l -0.889817,5.208569 -7.466924,12.673922 -8.340537,5.420374 -8.428948,2.218647 -5.435575,0.564888 -11.974888,-2.580431 -9.147607,-6.67781 -5.8967354,-8.801032 -2.4238282,-8.430421 -0.042953,-8.0568 z"
       id="path4" /></g><g
     inkscape:groupmode="layer"
     id="layer9"
     inkscape:label="Snowy Field"
     style="display:inline"><path
       style="fill:#f5f5f5;fill-opacity:1;fill-rule:nonzero;stroke-width:0.264583"
       d="m 25.424572,49.466005 c -4.062822,-1.957084 -4.948113,-2.567112 -4.948113,-2.567112 0,0 -1.217245,-0.704594 1.170998,-1.63271 2.388244,-0.928118 7.053543,-3.050939 7.053543,-3.050939 0,0 1.348499,-0.481841 0.52978,-0.96548 -0.818719,-0.48364 -1.729333,-0.722019 -2.893866,-0.591966 -1.164534,0.130051 -8.47551,0.139488 -13.654261,-0.0026 -5.1787501,-0.142164 -6.3650111,-0.21303 -6.3650111,-0.21303 l 4.7567691,1.161621 c 0,0 4.079334,1.306555 3.106014,1.658906 -0.973321,0.352354 -2.93937,-0.09284 -1.907094,0.675053 1.032277,0.767892 3.893362,0.474249 2.97053,1.996238 -0.922831,1.52199 -1.784196,2.396509 -1.784196,2.396509 l 9.059654,1.775005 z"
       id="path9" /></g><g
     inkscape:groupmode="layer"
     id="layer8"
     inkscape:label="Snowy Road"><path
       style="fill:#ffffff;fill-opacity:1;fill-rule:nonzero;stroke-width:0.264583"
       d="M 33.645057,61.423102 C 33.055803,60.855674 25.490785,58.884137 26.32009,55.018384 27.149393,51.152633 29.134884,50.387599 26.449414,49.516961 23.763944,48.64632 19.621781,47.484963 15.68381,47.063339 11.745838,46.641718 5.643714,46.300897 5.643714,46.300897 l 4.418999,6.53388 5.609358,4.531416 8.296506,3.662611 5.966585,0.932 z"
       id="path8" /></g><g
     inkscape:groupmode="layer"
     id="layer10"
     inkscape:label="Mountain Accent Snow - Front"><path
       style="opacity:1;fill:#ffffff;fill-opacity:1;fill-rule:nonzero;stroke-width:0.264583"
       d="m 16.372575,27.285778 c 4.97442,4.697161 9.094215,7.504639 9.094215,7.504639 0,0 -2.901045,-1.063819 -5.679717,-2.884874 -2.778673,-1.821058 -3.414498,-4.619765 -3.414498,-4.619765 z"
       id="path19" /><path
       style="opacity:1;fill:#ffffff;fill-opacity:1;fill-rule:nonzero;stroke-width:0.264583"
       d="m 10.204696,31.096288 c 0,0 2.146631,2.826914 6.086376,4.636701 3.939745,1.809787 4.795463,2.17359 4.795463,2.17359 0,0 -8.176329,-2.385693 -9.572601,-3.879448 -1.396272,-1.493756 -1.309238,-2.930843 -1.309238,-2.930843 z"
       id="path20" /><path
       style="opacity:1;fill:#ffffff;fill-opacity:1;fill-rule:nonzero;stroke-width:0.264583"
       d="m 29.746204,45.153331 c 0,0 3.450881,-3.2693 6.271154,-4.546545 2.820273,-1.277244 6.294723,-1.600292 6.294723,-1.600292 0,0 -1.335632,1.525569 -2.861892,2.254284 -1.526262,0.728716 -9.703985,3.892553 -9.703985,3.892553 z"
       id="path21" /></g><g
     inkscape:label="Ring"
     inkscape:groupmode="layer"
     id="layer1"
     style="display:inline"><path
       id="path1"
       style="fill:#323b44;fill-opacity:1;fill-rule:nonzero;stroke-width:0.264583"
       d="M 32.000114,0.97978516 A 31.020115,31.020115 0 0 0 0.97978516,32.000114 31.020115,31.020115 0 0 0 32.000114,63.019926 31.020115,31.020115 0 0 0 63.019926,32.000114 31.020115,31.020115 0 0 0 32.000114,0.97978516 Z m 0,1.87275394 A 29.147614,29.147614 0 0 1 61.147689,32.000114 29.147614,29.147614 0 0 1 32.000114,61.147689 29.147614,29.147614 0 0 1 2.8525391,32.000114 29.147614,29.147614 0 0 1 32.000114,2.8525391 Z" /></g></svg>
